<?xml version="1.0" encoding="UTF-8"?>
<svg id="INFRA_PLUS" data-name="INFRA PLUS" xmlns="http://www.w3.org/2000/svg" viewBox="0 0 413 181">
  <defs>
    <style>
      .cls-1 {
        letter-spacing: -.04em;
      }

      .cls-2 {
        letter-spacing: 0em;
      }

      .cls-3 {
        letter-spacing: 0em;
      }

      .cls-4 {
        fill: #fff;
        font-family: VersosVariable-Bold, 'Versos Variable';
        font-size: 52.62px;
        font-variation-settings: 'wght' 700, 'ital' 0;
        font-weight: 700;
      }

      .cls-5 {
        fill: #7a8c91;
      }
    </style>
  </defs>
  <g>
    <path d="M44.28,41.74h-10.27v-3.62h24.39v3.62h-10.27v26.22h-3.84v-26.22Z"/>
    <path d="M62.02,64.34h6.91v-22.6h-6.91v-3.62h17.65v3.62h-6.91v22.6h6.91v3.62h-17.65v-3.62Z"/>
    <path d="M82.87,38.12h4.26l8.74,26.65h1.11l8.7-26.65h4.26l-10.1,29.84h-6.86l-10.1-29.84Z"/>
    <path d="M113.14,64.34h6.91v-22.6h-6.91v-3.62h17.65v3.62h-6.91v22.6h6.91v3.62h-17.65v-3.62Z"/>
    <path d="M140.61,66.79c-2.06-1.07-3.65-2.61-4.75-4.63s-1.66-4.41-1.66-7.16v-3.88c0-2.73.55-5.1,1.66-7.12s2.69-3.57,4.75-4.67c2.06-1.09,4.48-1.64,7.27-1.64s5.21.53,7.27,1.6c2.06,1.07,3.64,2.61,4.75,4.63,1.11,2.02,1.66,4.41,1.66,7.16v3.88c0,2.73-.55,5.1-1.66,7.12-1.11,2.02-2.69,3.57-4.75,4.67-2.06,1.09-4.48,1.64-7.27,1.64s-5.21-.53-7.27-1.6ZM140.78,62.1c1.69,1.69,4.06,2.54,7.1,2.54s5.44-.84,7.12-2.52c1.68-1.68,2.51-4.06,2.51-7.16v-3.88c0-3.04-.85-5.41-2.54-7.1-1.69-1.69-4.06-2.54-7.1-2.54s-5.44.84-7.12,2.52c-1.68,1.68-2.52,4.06-2.52,7.16v3.88c0,3.04.85,5.41,2.54,7.1Z"/>
  </g>
  <rect class="cls-5" x="33.01" y="83.63" width="352.1" height="57.6"/>
  <path fill="#fff" d="M47.64768 93.886H74.06292V100.30564H54.804V108.72484H72.9579V115.03924H54.804V124.24774H74.58912000000001V130.72H47.64768ZM79.17266 117.61762H86.43422Q86.43422 121.19578 88.51271 123.03748Q90.5912 124.87918 94.64294 124.87918Q97.90538 124.87918 99.74708 123.64261Q101.58878 122.40604 101.58878 120.14338Q101.58878 118.51216 100.32589999999999 117.59131Q99.06302 116.67045999999999 95.80058 115.77592L89.43356 114.09208Q84.75037999999999 112.88182 82.30355 110.59285Q79.85672 108.30387999999999 79.85672 104.1469Q79.85672 100.88445999999999 81.56687 98.43763Q83.27702 95.99080000000001 86.46052999999999 94.62268Q89.64403999999999 93.25456 93.85364 93.25456Q101.06258 93.25456 104.7986 96.49069Q108.53461999999999 99.72682 108.53461999999999 105.77812H101.27306Q101.27306 102.77878 99.40504999999999 101.25280000000001Q97.53703999999999 99.72682 93.80102 99.72682Q90.69644 99.72682 88.93366999999999 100.77922000000001Q87.17089999999999 101.83162 87.17089999999999 103.72594Q87.17089999999999 105.30454 88.51271 106.30432Q89.85452 107.3041 92.59075999999999 107.98816L98.90516 109.56676Q103.90406 110.7244 106.48244 113.03968Q109.06082 115.35496 109.06082 119.9329Q109.06082 123.24796 107.29805 125.82634Q105.53528 128.40472 102.24653 129.87808Q98.95778 131.35144 94.59031999999999 131.35144Q87.11828 131.35144 83.14546999999999 127.82589999999999Q79.17266 124.30036 79.17266 117.61762ZM114.84902 93.886H129.53Q136.00225999999998 93.886 139.81721 97.49046999999999Q143.63216 101.09494 143.63216 107.51458Q143.63216 113.88159999999999 139.81721 117.48607Q136.00225999999998 121.09054 129.53 121.09054H122.11057999999998V130.72H114.84902ZM128.63546 114.4078Q132.21362 114.4078 134.18687 112.64502999999999Q136.16011999999998 110.88226 136.16011999999998 107.51458Q136.16011999999998 104.04166000000001 134.18687 102.3052Q132.21362 100.56873999999999 128.63546 100.56873999999999H122.11057999999998V114.4078ZM149.57822 93.886H156.94501999999997V124.03726H176.30917999999997V130.72H149.57822ZM191.83208 93.886H203.93468L216.56348 130.72H208.7231L206.51306 124.03726H189.14846L186.93841999999998 130.72H179.15066ZM204.61874 117.93334 198.4622 99.35848H197.09408L191.04278 117.93334ZM220.87832 93.886H234.2438L245.45186 124.35298H246.81998V93.886H254.08154V130.72H240.71606L229.50799999999998 100.25301999999999H228.13988V130.72H220.87832ZM271.07779999999997 93.886H283.18039999999996L295.8092 130.72H287.96882L285.75877999999994 124.03726H268.39417999999995L266.18413999999996 130.72H258.39637999999997ZM283.86445999999995 117.93334 277.70791999999994 99.35848H276.33979999999997L270.28849999999994 117.93334ZM300.12768 93.886H315.22962Q320.7021 93.886 324.70122 95.96449Q328.70034 98.04298 330.83145 101.91055Q332.96256 105.77812 332.96256 111.04012V113.56587999999999Q332.96256 118.82788 330.83145 122.69545Q328.70034 126.56302 324.70122 128.64150999999998Q320.7021 130.72 315.22962 130.72H300.12768ZM314.70342 123.93202Q319.96542 123.93202 322.70166 121.2484Q325.4379 118.56478 325.4379 113.56587999999999V111.04012Q325.4379 106.04122 322.67535 103.35759999999999Q319.9128 100.67398 314.70342 100.67398H307.49448V123.93202ZM347.37858 93.886H359.48118L372.10998 130.72H364.2696L362.05956 124.03726H344.69496L342.48492 130.72H334.69716ZM360.16524 117.93334 354.0087 99.35848H352.64058L346.58928 117.93334Z"/>
</svg>